PathFileType	4	(X/Y/Z)	./resultDataOpenSim/trcMotMarkerGrf/sub06/qtm-01-08.trc
DataRate	CameraRate	NumFrames	NumMarkers	Units	OrigDataRate	OrigDataStartFrame	OrigNumFrames
250.000000	250.000000	10	24	m	250.000000	296	473
Frame#	Time	L.Toe.Tip			R.Toe.Tip			L.Ankle.Lat			R.Ankle.Lat			L.Ankle.Med			R.Ankle.Med			L.Heel			R.Heel			L.Knee.Lat			R.Knee.Lat			L.Knee.Med			R.Knee.Med			L.Thigh.Upper			R.Thigh.Upper			L.ASIS			R.ASIS			V.Sacral			L.Acromium			R.Acromium			C7			L.Elbow			R.Elbow			L.Wrist.Lat			R.Wrist.Lat
		X1	Y1	Z1	X2	Y2	Z2	X3	Y3	Z3	X4	Y4	Z4	X5	Y5	Z5	X6	Y6	Z6	X7	Y7	Z7	X8	Y8	Z8	X9	Y9	Z9	X10	Y10	Z10	X11	Y11	Z11	X12	Y12	Z12	X13	Y13	Z13	X14	Y14	Z14	X15	Y15	Z15	X16	Y16	Z16	X17	Y17	Z17	X18	Y18	Z18	X19	Y19	Z19	X20	Y20	Z20	X21	Y21	Z21	X22	Y22	Z22	X23	Y23	Z23	X24	Y24	Z24

296	1.18	0.24630902	0.073340923	-0.035553777	0.9284327	0.035721071	0.095538351	0.27462137	0.19951098	-0.079379627	0.79330941	0.060162469	0.13455602	0.29995806	0.20428527	0.002369363	0.80269246	0.081473541	0.046565491	0.2432343	0.26433534	-0.03142966	0.73377006	0.037751059	0.082737019	0.61070625	0.38028783	-0.11124432	0.83508513	0.44911395	0.15521651	0.62067028	0.36313037	0.0074965595	0.78869264	0.43576585	0.034117902	0.62603645	0.77002616	-0.11163755	0.69414748	0.79616969	0.22761634	0.71049903	0.8215794	-0.078968039	0.76479721	0.8452618	0.1555512	0.55199782	0.9049256	0.074830963	0.64258393	1.3188613	-0.11807974	0.64970454	1.2923172	0.24527184	0.57035187	1.3434063	0.065696925	0.6555427	0.991521	-0.18093713	0.54053583	0.99559482	0.29547184	0.86922054	0.8707636	-0.14982213	0.63506126	0.78207276	0.36115194
297	1.184	0.25908275	0.075793366	-0.03675954	0.92831701	0.035726021	0.095713013	0.2872701	0.20208316	-0.079986932	0.79336244	0.059827835	0.13478774	0.31257576	0.20661408	0.0018862177	0.80270739	0.081596222	0.046798686	0.25592084	0.26681121	-0.03180279	0.73363988	0.037771872	0.082897349	0.62369635	0.381106	-0.11189399	0.83720688	0.44841522	0.15634028	0.6334166	0.3644307	0.0072728959	0.79132923	0.43526131	0.035076035	0.63261977	0.77153305	-0.11066049	0.69994023	0.79735408	0.2282648	0.71716552	0.82318053	-0.079076733	0.77088306	0.84661656	0.15622857	0.55821163	0.9064364	0.075480032	0.64875916	1.3204145	-0.11787361	0.6566257	1.2937662	0.2453589	0.5767913	1.3449802	0.066059983	0.66073733	0.99305968	-0.18022722	0.5496398	0.9962349	0.29638126	0.87295193	0.86966409	-0.15049494	0.6465697	0.78373111	0.36162518
298	1.188	0.27258794	0.078011453	-0.037887931	0.92821651	0.035732488	0.095864345	0.30014559	0.20446028	-0.080493754	0.79342307	0.059546223	0.13499816	0.32535567	0.20882668	0.0014765205	0.80270944	0.081732451	0.04700073	0.26870546	0.26900516	-0.032204617	0.73351318	0.037790657	0.08304759	0.63679022	0.38210129	-0.11250845	0.83919045	0.44775401	0.15737199	0.64647519	0.36590085	0.0069516886	0.79351905	0.43477293	0.03611063	0.63923267	0.77311576	-0.11003271	0.70566958	0.79850123	0.22888781	0.72394336	0.82491275	-0.079370855	0.77699152	0.84800191	0.15689213	0.56431633	0.90797927	0.07607159	0.65486066	1.3220403	-0.11768345	0.66347022	1.2953041	0.24542099	0.58317426	1.346587	0.066390234	0.66581141	0.99469768	-0.17950317	0.55865012	0.99697722	0.2972587	0.87657403	0.86865218	-0.1512177	0.65813934	0.78553215	0.36205612
299	1.192	0.28673604	0.07997838	-0.038918475	0.92812915	0.035737904	0.095989172	0.31325216	0.20663356	-0.080934142	0.79350617	0.059344472	0.13514763	0.33832599	0.21091839	0.0010987807	0.80271273	0.081877462	0.047187389	0.28145039	0.27095007	-0.032574887	0.73342107	0.03781069	0.083154501	0.64994616	0.38325847	-0.11308737	0.84104242	0.44714372	0.15827389	0.6597653	0.36754316	0.0065378973	0.79535042	0.43432715	0.03714137	0.64587796	0.77477266	-0.1098039	0.71134727	0.79962481	0.22948927	0.73076169	0.8267988	-0.079509683	0.78309368	0.84940257	0.15753869	0.57031988	0.90954318	0.076413873	0.66089392	1.3237339	-0.11750957	0.67023451	1.2969184	0.24545686	0.58952385	1.3481884	0.066682511	0.67078052	0.99642819	-0.17877336	0.56753047	0.99780164	0.2980798	0.88006392	0.86773427	-0.15199487	0.66970257	0.78744812	0.36241621
300	1.196	0.3014274	0.081686959	-0.039821778	0.92805191	0.035743345	0.096089194	0.32657331	0.20859511	-0.081333048	0.79361233	0.059217375	0.13521348	0.35148786	0.21289872	0.00072166532	0.80272657	0.082028471	0.047367318	0.29408239	0.27265001	-0.032904899	0.73337523	0.037834484	0.083198882	0.66310259	0.38457664	-0.11361687	0.84278053	0.4465995	0.15905574	0.67301199	0.36935348	0.0061484745	0.79696441	0.43393459	0.038078387	0.65250344	0.77650434	-0.1097711	0.71697897	0.80072805	0.23007102	0.73751727	0.82878305	-0.079415333	0.78913456	0.85080379	0.15815257	0.57620741	0.91112132	0.076431285	0.66685777	1.3254936	-0.11734994	0.67692452	1.2985992	0.24546779	0.59584537	1.3497906	0.066947992	0.67565733	0.99824498	-0.17804411	0.57627903	0.99870358	0.29883846	0.88340208	0.86690035	-0.15282778	0.68127114	0.7894925	0.36271612
301	1.2	0.31658254	0.083147608	-0.040597474	0.92798221	0.035751788	0.096171491	0.34009435	0.21033708	-0.081701903	0.79368296	0.059156064	0.13522409	0.36480543	0.21476968	0.00034192577	0.8027519	0.082179603	0.047537541	0.3066553	0.27405447	-0.033242662	0.73335648	0.037870306	0.083203076	0.67624335	0.38607342	-0.11411432	0.84445454	0.44614753	0.15974438	0.68608185	0.37130527	0.0058491022	0.79847185	0.43361101	0.03887717	0.65905298	0.7783109	-0.10964014	0.722566	0.8018092	0.23063317	0.74411629	0.83077564	-0.079254983	0.79508353	0.85220031	0.15872828	0.58206459	0.91271949	0.076317561	0.67275078	1.3273156	-0.11720385	0.68355102	1.3003409	0.24545921	0.60212252	1.3514344	0.067203345	0.68045489	1.0001418	-0.17732137	0.58498175	0.99968986	0.29956804	0.88659638	0.86613379	-0.15370757	0.69293434	0.7917113	0.36299685
302	1.204	0.33215759	0.084369783	-0.041296982	0.92791645	0.035764165	0.096244016	0.35380415	0.21185294	-0.082046151	0.79365126	0.059149142	0.13523512	0.37824442	0.21651244	-3.4677554e-05	0.80278511	0.082323586	0.047694228	0.31925072	0.27511416	-0.033632977	0.73333481	0.037927637	0.083211925	0.68934933	0.38776586	-0.11460294	0.84611241	0.44580702	0.16035739	0.69905551	0.37336575	0.0056108998	0.79989075	0.43337607	0.039559943	0.66550171	0.78018445	-0.1092648	0.72810844	0.80286589	0.23117532	0.750498	0.83272331	-0.079191603	0.80095586	0.85359633	0.15928529	0.58807751	0.91435332	0.076404511	0.67858047	1.3291918	-0.11707047	0.69012435	1.3021388	0.24543804	0.60834629	1.3531373	0.067454367	0.68518829	1.002112	-0.17661136	0.59373685	1.000759	0.30030976	0.88967444	0.8654392	-0.15461539	0.70471259	0.79411119	0.36326524
303	1.208	0.34811035	0.085352782	-0.041975828	0.92785079	0.035778846	0.096312561	0.36767959	0.21314363	-0.082373911	0.79352618	0.059166483	0.13527679	0.3917999	0.21809526	-0.00041017489	0.80281955	0.082457124	0.047840046	0.33185493	0.27583949	-0.034048607	0.73329503	0.038006088	0.083248651	0.70234193	0.38965019	-0.11505958	0.84776678	0.44557503	0.16090469	0.71204322	0.37550706	0.0053931329	0.80119035	0.4332444	0.040175547	0.67188002	0.78211364	-0.10872133	0.73360682	0.80389667	0.23169719	0.75668783	0.83463165	-0.07925571	0.80677514	0.85499472	0.15985193	0.59438269	0.91601253	0.076810268	0.68436386	1.3311099	-0.11694749	0.69665415	1.3039849	0.24540801	0.61452765	1.3548751	0.067692103	0.68987437	1.0041479	-0.17592262	0.6025339	1.001896	0.30106235	0.89266047	0.86484275	-0.15553602	0.71648215	0.79662627	0.36346524
304	1.212	0.36438297	0.086103721	-0.042658082	0.92778197	0.035794414	0.096380424	0.38169044	0.21422087	-0.082698388	0.79337531	0.059173363	0.13534509	0.40547641	0.21949667	-0.00078925119	0.80284319	0.082583872	0.047986021	0.34439043	0.27628188	-0.034407427	0.73323854	0.038098532	0.083306911	0.71518086	0.39170781	-0.11544845	0.84939435	0.44543498	0.16137966	0.72507906	0.37771172	0.0051890582	0.80231082	0.43323677	0.040769731	0.6782589	0.78409078	-0.10817403	0.73906225	0.80490087	0.23219873	0.7628112	0.83655109	-0.079359917	0.81255102	0.85639459	0.16045021	0.60096714	0.91766074	0.077387781	0.69012153	1.3330552	-0.11683907	0.70314791	1.3058707	0.24536749	0.62068979	1.3566112	0.067898673	0.69452867	1.0062411	-0.1752703	0.61129965	1.0030895	0.30179988	0.89556366	0.86436062	-0.15646774	0.7281187	0.79918451	0.36354056
305	1.216	0.38093044	0.086647003	-0.043352929	0.92770588	0.03581099	0.096449141	0.39580814	0.21510416	-0.083027515	0.79324945	0.059155527	0.13542732	0.41924854	0.22071844	-0.0011646632	0.80284106	0.082713547	0.04814654	0.35685697	0.27646641	-0.034670124	0.73316935	0.038201098	0.08337538	0.72792324	0.39392334	-0.11576876	0.85096709	0.44537585	0.16178271	0.73814501	0.37997379	0.0050089919	0.80312885	0.43337969	0.041398872	0.68469332	0.78611207	-0.10771809	0.74447599	0.80587806	0.23267996	0.76904499	0.83854793	-0.079361878	0.81828367	0.85779426	0.16109099	0.60768155	0.91928522	0.077985211	0.69587581	1.335015	-0.1167607	0.70961092	1.3077901	0.24531336	0.62685185	1.3583305	0.068064977	0.69915874	1.0083824	-0.17467896	0.61999147	1.0043359	0.30251005	0.89838001	0.86398302	-0.15741485	0.73965276	0.80178545	0.36350745
